# xmcd
#
# Track frame offsets:
#	150
#	13488
#	23252
#	33372
#	46274
#	56209
#	67047
#	81760
#	91840
#	103237
#	114219
#	127007
#
# Disc length: 1821 seconds
#
# Revision: 1
# Processed by: cddbd v1.5.1PL0 Copyright (c) Steve Scherf et al.
# Submitted via: audiograbber 1.83.01
#
DISCID=99071b0c
DTITLE=Charley Pride - Pride Of Country Music
DYEAR=1900
DGENRE=
TTITLE0=In the Middle of Nowhere
TTITLE1=The Last Thing on My Mind
TTITLE2=Just Between You and Me
TTITLE3=Apartment #9
TTITLE4=Spell of the Freight Train
TTITLE5=I Know One
TTITLE6=I'm Not the Boy I Used to Be
TTITLE7=A Good Woman's Love
TTITLE8=Silence
TTITLE9=Take Me Home
TTITLE10=Touch ;My Heart
TTITLE11=Best Banjo Picker
EXTD=
EXTT0=
EXTT1=
EXTT2=
EXTT3=
EXTT4=
EXTT5=
EXTT6=
EXTT7=
EXTT8=
EXTT9=
EXTT10=
EXTT11=
PLAYORDER=
